<?xml version="1.0" encoding="UTF-8"?>
<svg xmlns:svg="svg" xmlns:xlink="http://www.w3.org/1999/xlink" xmlns="http://www.w3.org/2000/svg" width="800" height="500" onload="init(evt)">
  <script xlink:href="../Scripts/jquery-2.0.3.js"/>
  <script xlink:href="../Scripts/mapulation.js"/>
  <g id="map" map-id="4">
      <polygon id ="7" class="room" fill="#ffffff" stroke="#000000" stroke-miterlimit="10" points="452.292,305.599 452.292,200.5 572.883,200.5 572.883,446.5 452.292,446.5"/>
      <rect id ="8" class="room" x="387.293" y="324.5" fill="#ffffff" stroke="#000000" stroke-miterlimit="10" width="65" height="122"/>
      <path id ="9" class="room" fill="#ffffff" stroke="#000000" stroke-miterlimit="10" d="M572.883,200.5h-120.59v124h-65l-0.053-44.439V200.5h0.053
	l3.307-34.195c0-49.415,39.985-89.4,89.4-89.4c49.414,0,89.399,39.985,89.399,89.4L572.883,200.5z"/>
      <path id ="10" class="room" fill="#ffffff" stroke="#000000" stroke-miterlimit="10" d="M331,163.405c0.293,44.095,20.293,89.095,55.882,116.369l0.411-79.273
	l3.359-37.095H331z"/>
      <path id ="11" class="room" fill="#ffffff" stroke="#000000" stroke-miterlimit="10" d="M629,163.404c-0.293,44.095-20.293,89.096-55.883,116.369
	l-0.41-79.274l-3.359-37.095H629z"/>
      <path id ="12" class="room" fill="#ffffff" stroke="#000000" stroke-miterlimit="10" d="M331,163.405l59.727-0.543c0.795-21.051,9.358-41.496,23.549-57.031
	l-62.167-18.507c-13.735,22.856-21.415,49.359-21.048,76.082"/>
      <path id ="13" class="room" fill="#ffffff" stroke="#000000" stroke-miterlimit="10" d="M629,163.405l-59.727-0.543c-0.795-21.051-9.357-41.496-23.549-57.031
	l62.166-18.507c13.734,22.856,21.415,49.359,21.048,76.082"/>
      <path id ="14" class="room" fill="#ffffff" stroke="#000000" stroke-miterlimit="10" d="M480.517,14.457c-38.434-0.204-76.306,15.076-103.963,41.74
	c-9.266,8.933-17.335,19.095-23.981,30.115l61.704,19.518l0.168-0.341c16.717-18.011,41.008-28.257,65.514-28.401L480,76.905l0-62.5
	"/>
      <path id ="15" class="room" fill="#ffffff" stroke="#000000" stroke-miterlimit="10" d="M480.062,14.457c38.434-0.204,76.306,15.076,103.964,41.74
	c9.266,8.933,17.334,19.095,23.98,30.115l-61.703,19.518l-0.168-0.341c-16.718-18.011-41.009-28.257-65.514-28.401l-0.043-0.183
	v-62.5"/>
  </g>
</svg>
